<mxfile host="app.diagrams.net" modified="2023-11-16T01:35:06.621Z" agent="Mozilla/5.0 (Macintosh; Intel Mac OS X 10_15_7) AppleWebKit/537.36 (KHTML, like Gecko) Chrome/119.0.0.0 Safari/537.36" etag="DRbS78y7s5T-cNqc9fai" version="21.6.8" type="device">
  <diagram name="Page-1" id="ocNyU9h-3YAkAHMfHksv">
    <mxGraphModel dx="1094" dy="1734" grid="1" gridSize="10" guides="1" tooltips="1" connect="1" arrows="1" fold="1" page="1" pageScale="1" pageWidth="850" pageHeight="1100" math="0" shadow="0">
      <root>
        <mxCell id="0" />
        <mxCell id="1" parent="0" />
        <mxCell id="ia04AwvbzuUxVsjqD7X7-5" value="" style="edgeStyle=orthogonalEdgeStyle;rounded=0;orthogonalLoop=1;jettySize=auto;html=1;entryX=0;entryY=0.5;entryDx=0;entryDy=0;" edge="1" parent="1" source="ia04AwvbzuUxVsjqD7X7-1" target="ia04AwvbzuUxVsjqD7X7-3">
          <mxGeometry relative="1" as="geometry" />
        </mxCell>
        <mxCell id="ia04AwvbzuUxVsjqD7X7-9" style="edgeStyle=orthogonalEdgeStyle;rounded=0;orthogonalLoop=1;jettySize=auto;html=1;" edge="1" parent="1" source="ia04AwvbzuUxVsjqD7X7-1" target="ia04AwvbzuUxVsjqD7X7-10">
          <mxGeometry relative="1" as="geometry">
            <mxPoint x="110" y="270" as="targetPoint" />
            <Array as="points">
              <mxPoint x="80" y="170" />
              <mxPoint x="80" y="170" />
            </Array>
          </mxGeometry>
        </mxCell>
        <mxCell id="ia04AwvbzuUxVsjqD7X7-20" value="Subscription/update email to customer" style="edgeStyle=orthogonalEdgeStyle;rounded=0;orthogonalLoop=1;jettySize=auto;html=1;exitX=1;exitY=1;exitDx=0;exitDy=0;entryX=0.038;entryY=0.2;entryDx=0;entryDy=0;entryPerimeter=0;" edge="1" parent="1" source="ia04AwvbzuUxVsjqD7X7-1" target="ia04AwvbzuUxVsjqD7X7-17">
          <mxGeometry relative="1" as="geometry">
            <mxPoint x="190" y="170" as="targetPoint" />
            <Array as="points">
              <mxPoint x="150" y="88" />
              <mxPoint x="150" y="135" />
              <mxPoint x="191" y="135" />
              <mxPoint x="191" y="236" />
            </Array>
          </mxGeometry>
        </mxCell>
        <mxCell id="ia04AwvbzuUxVsjqD7X7-1" value="Customer" style="ellipse;whiteSpace=wrap;html=1;" vertex="1" parent="1">
          <mxGeometry x="40" y="20" width="140" height="80" as="geometry" />
        </mxCell>
        <mxCell id="ia04AwvbzuUxVsjqD7X7-8" style="edgeStyle=orthogonalEdgeStyle;rounded=0;orthogonalLoop=1;jettySize=auto;html=1;exitX=1;exitY=0.5;exitDx=0;exitDy=0;" edge="1" parent="1" source="ia04AwvbzuUxVsjqD7X7-3" target="ia04AwvbzuUxVsjqD7X7-6">
          <mxGeometry relative="1" as="geometry" />
        </mxCell>
        <mxCell id="ia04AwvbzuUxVsjqD7X7-3" value="Customers input is sent through an api and invokes a lambda" style="ellipse;whiteSpace=wrap;html=1;aspect=fixed;" vertex="1" parent="1">
          <mxGeometry x="310" y="40" width="120" height="120" as="geometry" />
        </mxCell>
        <mxCell id="ia04AwvbzuUxVsjqD7X7-6" value="Shop Email receives customer message&amp;nbsp;" style="ellipse;whiteSpace=wrap;html=1;" vertex="1" parent="1">
          <mxGeometry x="580" y="60" width="120" height="80" as="geometry" />
        </mxCell>
        <mxCell id="ia04AwvbzuUxVsjqD7X7-12" style="edgeStyle=orthogonalEdgeStyle;rounded=0;orthogonalLoop=1;jettySize=auto;html=1;entryX=0.5;entryY=0;entryDx=0;entryDy=0;" edge="1" parent="1" source="ia04AwvbzuUxVsjqD7X7-10" target="ia04AwvbzuUxVsjqD7X7-11">
          <mxGeometry relative="1" as="geometry" />
        </mxCell>
        <mxCell id="ia04AwvbzuUxVsjqD7X7-10" value="Customer Inputs their vehicle and personal information&amp;nbsp;" style="ellipse;whiteSpace=wrap;html=1;" vertex="1" parent="1">
          <mxGeometry x="40" y="230" width="140" height="80" as="geometry" />
        </mxCell>
        <mxCell id="ia04AwvbzuUxVsjqD7X7-14" style="edgeStyle=orthogonalEdgeStyle;rounded=0;orthogonalLoop=1;jettySize=auto;html=1;" edge="1" parent="1" source="ia04AwvbzuUxVsjqD7X7-11" target="ia04AwvbzuUxVsjqD7X7-13">
          <mxGeometry relative="1" as="geometry" />
        </mxCell>
        <mxCell id="ia04AwvbzuUxVsjqD7X7-16" style="edgeStyle=orthogonalEdgeStyle;rounded=0;orthogonalLoop=1;jettySize=auto;html=1;exitX=1;exitY=0;exitDx=0;exitDy=0;" edge="1" parent="1" source="ia04AwvbzuUxVsjqD7X7-11" target="ia04AwvbzuUxVsjqD7X7-17">
          <mxGeometry relative="1" as="geometry">
            <mxPoint x="330" y="260" as="targetPoint" />
          </mxGeometry>
        </mxCell>
        <mxCell id="ia04AwvbzuUxVsjqD7X7-11" value="Data invokes lambda functions" style="ellipse;whiteSpace=wrap;html=1;aspect=fixed;" vertex="1" parent="1">
          <mxGeometry x="230" y="330" width="80" height="80" as="geometry" />
        </mxCell>
        <mxCell id="ia04AwvbzuUxVsjqD7X7-13" value="Data is recorded in DynamoDB" style="shape=process;whiteSpace=wrap;html=1;backgroundOutline=1;" vertex="1" parent="1">
          <mxGeometry x="550" y="340" width="120" height="60" as="geometry" />
        </mxCell>
        <mxCell id="ia04AwvbzuUxVsjqD7X7-17" value="Lambda invokes SES about subscription to updates" style="ellipse;whiteSpace=wrap;html=1;aspect=fixed;" vertex="1" parent="1">
          <mxGeometry x="290" y="220" width="80" height="80" as="geometry" />
        </mxCell>
        <mxCell id="ia04AwvbzuUxVsjqD7X7-21" value="Lambda writes customer data to DynamoBD via sns" style="ellipse;whiteSpace=wrap;html=1;aspect=fixed;" vertex="1" parent="1">
          <mxGeometry x="385" y="330" width="80" height="80" as="geometry" />
        </mxCell>
        <mxCell id="ia04AwvbzuUxVsjqD7X7-22" value="Customer name, email, and message are entered" style="text;html=1;strokeColor=none;fillColor=none;align=center;verticalAlign=middle;whiteSpace=wrap;rounded=0;" vertex="1" parent="1">
          <mxGeometry x="210" width="60" height="30" as="geometry" />
        </mxCell>
      </root>
    </mxGraphModel>
  </diagram>
</mxfile>
